<svg id="SvgjsSvg1012" width="288" height="288" xmlns="http://www.w3.org/2000/svg" version="1.1" xmlns:xlink="http://www.w3.org/1999/xlink" xmlns:svgjs="http://svgjs.com/svgjs"><path id="SvgjsPath1018" d="M 144,0 C 5,0 0,5 0,144 0,283 5,288 144,288 283,288 288,283 288,144 288,5 283,0 144,0 Z" fill="#071e34" transform="matrix(0.7916,0,0,0.7916,30.009600000000006,30.009600000000006)"></path><defs id="SvgjsDefs1013"></defs><g id="SvgjsG1014" transform="matrix(0.4652,0,0,0.4652,76.54957074012756,77.0720084985733)"><svg xmlns="http://www.w3.org/2000/svg" data-name="Layer 1" viewBox="0 0 100 100" width="288" height="288"><path d="M72.81,22A28,28,0,0,0,18,30v.4A20,20,0,0,0,22,70H34a4,4,0,0,0,0-8H22a12,12,0,0,1-.19-24l.49,0a4.3,4.3,0,0,0,3.1-1.4,4,4,0,0,0,.91-3.27,20,20,0,1,1,39.45-6.3,4,4,0,0,0,4.81,3.32A16.19,16.19,0,0,1,74,30a16,16,0,0,1,0,32H66a4,4,0,0,0,0,8h8a24,24,0,1,0-1.19-48Z" fill="#55a8f8" class="color000 svgShape"></path><path d="M50,46a4,4,0,0,0-4,4V84.34l-5.17-5.17a4,4,0,0,0-5.66,5.66l12,12a4,4,0,0,0,5.66,0l12-12a4,4,0,0,0-5.66-5.66L54,84.34V50A4,4,0,0,0,50,46Z" fill="#55a8f8" class="color000 svgShape"></path></svg></g></svg>